<svg width="100" height="110" viewBox="0 0 100 110" fill="none" xmlns="http://www.w3.org/2000/svg">
<path fill-rule="evenodd" clip-rule="evenodd" d="M4.0846 50H0V60C2.00233e-06 73.2608 5.26785 85.9785 14.6447 95.3553C24.0215 104.732 36.7392 110 50 110C63.2608 110 75.9785 104.732 85.3553 95.3553C94.7322 85.9785 100 73.2608 100 60V50L97.9154 50C97.2284 62.1665 92.3812 73.6881 84.234 82.3553C75.4198 91.7322 63.4652 97 51 97C38.5348 97 26.5802 91.7322 17.766 82.3553C9.61879 73.6881 4.77157 62.1665 4.0846 50Z" fill="#325EA9"/>
<circle cx="50" cy="50" r="50" fill="#003DA5"/>
<path d="M14.8663 26.724H36.7123C40.4963 26.724 43.5323 27.736 45.8203 29.76C48.1523 31.784 49.3183 34.468 49.3183 37.812C49.3183 40.364 48.6143 42.564 47.2063 44.412C45.7983 46.26 43.9943 47.536 41.7943 48.24V48.504C44.4783 49.12 46.6123 50.396 48.1963 52.332C49.7803 54.268 50.5723 56.82 50.5723 59.988C50.5723 64.036 49.2963 67.05 46.7443 69.03C44.2363 71.01 40.8923 72 36.7123 72H14.8663V26.724ZM35.4583 46.062C37.7023 46.062 39.5063 45.424 40.8703 44.148C42.2343 42.828 42.9163 41.134 42.9163 39.066C42.9163 36.778 42.3003 35.062 41.0683 33.918C39.8363 32.774 38.1423 32.202 35.9863 32.202H21.1363V46.062H35.4583ZM36.5803 66.522C41.6403 66.522 44.1703 64.08 44.1703 59.196C44.1703 54.092 41.4863 51.54 36.1183 51.54H21.1363V66.522H36.5803ZM58.8878 26.724H65.1578V66.522H88.3898V72H58.8878V26.724Z" fill="white"/>
</svg>
