<svg width="100" height="110" viewBox="0 0 100 110" fill="none" xmlns="http://www.w3.org/2000/svg">
<path fill-rule="evenodd" clip-rule="evenodd" d="M4.0846 50H0V60C2.00233e-06 73.2608 5.26785 85.9785 14.6447 95.3553C24.0215 104.732 36.7392 110 50 110C63.2608 110 75.9785 104.732 85.3553 95.3553C94.7322 85.9785 100 73.2608 100 60V50L97.9154 50C97.2284 62.1665 92.3812 73.6881 84.234 82.3553C75.4198 91.7322 63.4652 97 51 97C38.5348 97 26.5802 91.7322 17.766 82.3553C9.61879 73.6881 4.77157 62.1665 4.0846 50Z" fill="#2E8C59"/>
<circle cx="50" cy="50" r="50" fill="#00843D"/>
<path d="M31.5205 72.792C24.1285 72.792 18.5405 70.856 14.7565 66.984C10.9725 63.068 9.08052 57.194 9.08052 49.362C9.08052 33.742 16.6925 25.932 31.9165 25.932C38.1645 25.932 43.1805 27.318 46.9645 30.09C50.7485 32.862 52.6405 36.888 52.6405 42.168H46.2385C46.2385 38.516 44.9625 35.788 42.4105 33.984C39.8585 32.18 36.3605 31.278 31.9165 31.278C26.4165 31.278 22.3245 32.686 19.6405 35.502C16.9565 38.318 15.6145 42.938 15.6145 49.362V49.494C15.6585 55.874 16.9785 60.472 19.5745 63.288C22.2145 66.06 26.1965 67.446 31.5205 67.446C36.6245 67.446 40.3645 66.39 42.7405 64.278C45.1605 62.166 46.3705 58.932 46.3705 54.576V53.916H30.3985V48.438H52.6405V72H47.7565L47.2945 66.984C43.8625 70.856 38.6045 72.792 31.5205 72.792ZM62.5617 26.724H68.8317V66.522H92.0637V72H62.5617V26.724Z" fill="white"/>
</svg>
