<svg width="100" height="110" viewBox="0 0 100 110" fill="none" xmlns="http://www.w3.org/2000/svg">
<path fill-rule="evenodd" clip-rule="evenodd" d="M4.0846 50H0V60C2.00233e-06 73.2608 5.26785 85.9785 14.6447 95.3553C24.0215 104.732 36.7392 110 50 110C63.2608 110 75.9785 104.732 85.3553 95.3553C94.7322 85.9785 100 73.2608 100 60V50L97.9154 50C97.2284 62.1665 92.3812 73.6881 84.234 82.3553C75.4198 91.7322 63.4652 97 51 97C38.5348 97 26.5802 91.7322 17.766 82.3553C9.61879 73.6881 4.77157 62.1665 4.0846 50Z" fill="#F3A940"/>
<circle cx="50" cy="50" r="50" fill="#ED8B00"/>
<path d="M31.6525 72.792C24.4805 72.792 18.9145 70.834 14.9545 66.918C11.0385 62.958 9.08052 57.106 9.08052 49.362C9.08052 41.618 11.0385 35.788 14.9545 31.872C18.9145 27.912 24.4805 25.932 31.6525 25.932C38.8685 25.932 44.4345 27.912 48.3505 31.872C52.3105 35.788 54.2905 41.618 54.2905 49.362C54.2905 57.062 52.3105 62.892 48.3505 66.852C44.4345 70.812 38.8685 72.792 31.6525 72.792ZM31.6525 67.446C36.8885 67.446 40.8925 66.038 43.6645 63.222C46.4365 60.362 47.8225 55.83 47.8225 49.626V49.362C47.7785 43.07 46.3705 38.494 43.5985 35.634C40.8265 32.73 36.8445 31.278 31.6525 31.278C26.5045 31.278 22.5445 32.73 19.7725 35.634C17.0005 38.494 15.5925 43.07 15.5485 49.362V49.626C15.5485 55.83 16.9345 60.362 19.7065 63.222C22.4785 66.038 26.4605 67.446 31.6525 67.446ZM62.5617 26.724H68.8317V66.522H92.0637V72H62.5617V26.724Z" fill="white"/>
</svg>
