<svg width="100" height="110" viewBox="0 0 100 110" fill="none" xmlns="http://www.w3.org/2000/svg">
<path fill-rule="evenodd" clip-rule="evenodd" d="M4.08459 50H0V60C0 73.2608 5.26782 85.9785 14.6447 95.3553C24.0215 104.732 36.7392 110 50 110C63.2608 110 75.9785 104.732 85.3553 95.3553C94.7322 85.9785 100 73.2608 100 60V50H97.9154C97.2285 62.1665 92.3812 73.6881 84.234 82.3553C75.4198 91.7322 63.4651 97 51 97C38.5349 97 26.5802 91.7322 17.766 82.3553C9.61877 73.6881 4.77155 62.1665 4.08459 50Z" fill="#E05045"/>
<path fill-rule="evenodd" clip-rule="evenodd" d="M50 100C77.6143 100 100 77.6142 100 50C100 22.3858 77.6143 0 50 0C22.3857 0 0 22.3858 0 50C0 77.6142 22.3857 100 50 100ZM36.6237 26.724H13.0616V72H19.3317V53.322H35.9637L45.7977 72H52.7936L42.3657 52.398C44.9617 51.43 46.9857 49.824 48.4377 47.58C49.9337 45.336 50.6816 42.674 50.6816 39.594C50.6816 35.678 49.4717 32.554 47.0516 30.222C44.6317 27.89 41.1556 26.724 36.6237 26.724ZM42.1677 45.666C40.7156 47.118 38.7576 47.844 36.2936 47.844H19.3317V32.202H36.2936C38.9337 32.202 40.9357 32.862 42.2997 34.182C43.6636 35.458 44.3456 37.284 44.3456 39.66C44.3456 42.212 43.6196 44.214 42.1677 45.666ZM66.9625 26.724H60.6925V72H90.1945V66.522H66.9625V26.724Z" fill="#DA291C"/>
</svg>
