<svg width="156" height="163" viewBox="0 0 156 163" fill="none" xmlns="http://www.w3.org/2000/svg">
    <path fill-rule="evenodd" clip-rule="evenodd"
        d="M143 78H156V85C156 95.2431 153.982 105.386 150.063 114.849C146.143 124.313 140.397 132.911 133.154 140.154C125.911 147.397 117.313 153.143 107.849 157.063C98.3859 160.982 88.2431 163 78 163C67.7569 163 57.6141 160.982 48.1506 157.063C38.6873 153.143 30.0886 147.397 22.8457 140.154C15.6027 132.911 9.8573 124.313 5.93738 114.849C2.01758 105.386 0 95.2431 0 85V78H13V83.8333C13 92.3692 14.6813 100.822 17.9478 108.708C21.2144 116.594 26.0023 123.759 32.0381 129.795C38.0739 135.831 45.2394 140.619 53.1255 143.886C61.0117 147.152 69.4641 148.833 78 148.833C86.5359 148.833 94.9883 147.152 102.874 143.886C110.761 140.619 117.926 135.831 123.962 129.795C129.998 123.759 134.786 116.594 138.052 108.708C141.319 100.822 143 92.3693 143 83.8333V78Z"
        fill="#ECEBA0" />
    <path fill-rule="evenodd" clip-rule="evenodd"
        d="M78 156C121.078 156 156 121.078 156 78C156 34.9218 121.078 0 78 0C34.9218 0 0 34.9218 0 78C0 121.078 34.9218 156 78 156ZM119.574 50.2215C125.068 58.444 128 68.1109 128 78C128 79.5913 127.368 81.1174 126.243 82.2426C125.117 83.3679 123.591 84 122 84C120.409 84 118.883 83.3679 117.757 82.2426C116.632 81.1174 116 79.5913 116 78C116 70.4843 113.771 63.1374 109.596 56.8883C105.42 50.6393 99.4856 45.7687 92.542 42.8926C85.5984 40.0165 77.9579 39.2639 70.5866 40.7302C63.2153 42.1964 56.4444 45.8156 51.13 51.13C45.8156 56.4443 42.1964 63.2153 40.7302 70.5866C39.2639 77.9579 40.0165 85.5984 42.8926 92.542C45.7687 99.4856 50.6393 105.42 56.8884 109.596C63.1307 113.767 70.4686 115.995 77.9759 116L78 116L78.1999 116L66.9395 105.595C65.3161 104.095 65.2161 101.563 66.7162 99.9395C68.2163 98.3161 70.7484 98.2161 72.3719 99.7162L92.7311 118.528C92.8859 118.652 93.0334 118.789 93.1721 118.94C93.8867 119.713 94.2382 120.692 94.2349 121.668C94.2353 122.64 93.8837 123.615 93.1721 124.385C93.0335 124.535 92.8861 124.672 92.7315 124.796L72.3719 143.609C70.7485 145.109 68.2163 145.009 66.7162 143.385C65.2161 141.762 65.3161 139.23 66.9396 137.729L77.4691 128H77V127.99C67.4604 127.799 58.1666 124.882 50.2215 119.573C41.9991 114.079 35.5904 106.27 31.806 97.1342C28.0217 87.9979 27.0315 77.9445 28.9608 68.2455C30.89 58.5464 35.6521 49.6373 42.6447 42.6447C49.6373 35.652 58.5465 30.89 68.2455 28.9607C77.9446 27.0315 87.9979 28.0216 97.1342 31.806C106.27 35.5904 114.079 41.999 119.574 50.2215Z"
        fill="#FDFB89" />
</svg>